<?xml version="1.0" standalone="no"?>
<!DOCTYPE svg PUBLIC "-//W3C//DTD SVG 20010904//EN"
 "http://www.w3.org/TR/2001/REC-SVG-20010904/DTD/svg10.dtd">
<svg version="1.0" xmlns="http://www.w3.org/2000/svg"
 width="260.000000pt" height="260.000000pt" viewBox="0 0 260.000000 260.000000"
 preserveAspectRatio="xMidYMid meet">
<metadata>
Created by potrace 1.14, written by Peter Selinger 2001-2017
</metadata>
<g transform="translate(0.000000,260.000000) scale(0.100000,-0.100000)"
fill="#000000" stroke="none">
<path d="M0 1300 l0 -1300 1300 0 1300 0 0 1300 0 1300 -1300 0 -1300 0 0
-1300z m708 285 c2 -14 -37 -59 -133 -155 l-135 -135 136 -136 c98 -98 135
-142 131 -153 -17 -43 -38 -29 -193 125 -85 85 -154 159 -154 164 0 6 69 80
154 164 155 153 187 174 194 126z m309 -127 c84 -84 153 -160 153 -168 0 -8
-67 -82 -149 -164 -149 -148 -180 -169 -189 -122 -3 13 36 58 129 152 l134
134 -138 138 c-75 75 -137 142 -137 148 0 13 21 34 34 34 6 0 79 -69 163 -152z
m621 128 c3 -13 -36 -59 -133 -156 l-137 -137 137 -136 c123 -122 135 -138
125 -156 -6 -12 -16 -21 -23 -21 -16 0 -317 295 -317 312 0 7 69 82 153 166
153 153 186 175 195 128z m470 0 c3 -13 -36 -59 -134 -157 l-137 -138 137
-135 c123 -121 136 -137 126 -156 -6 -11 -16 -20 -24 -20 -17 0 -316 295 -316
312 0 7 69 82 153 166 153 153 186 175 195 128z m149 -142 c8 -23 -174 -206
-202 -202 -44 6 -28 39 61 129 89 89 127 109 141 73z"/>
</g>
</svg>
