<?xml version="1.0" encoding="utf-8"?>
<!-- Generator: Adobe Illustrator 25.2.0, SVG Export Plug-In . SVG Version: 6.00 Build 0)  -->
<svg version="1.1" xmlns="http://www.w3.org/2000/svg" xmlns:xlink="http://www.w3.org/1999/xlink" x="0px" y="0px"
	 viewBox="0 0 208.1 69.4" style="enable-background:new 0 0 208.1 69.4;" xml:space="preserve">
<style type="text/css">
	.st0{fill:#FFFFFF;}
</style>
<g id="Layer_2">
</g>
<g id="Layer_1">
	<g>
		<path class="st0" d="M37.6,1c-1.4-1.4-3.6-1.4-5,0L1,32.6c-0.7,0.7-1,1.5-1,2.5c0,0.9,0.4,1.8,1,2.5l30.8,30.8
			c0.7,0.7,1.6,1,2.5,1s1.8-0.3,2.5-1c1.4-1.4,1.4-3.6,0-4.9L8.4,35.1L37.6,6C38.9,4.6,38.9,2.4,37.6,1z"/>
		<path class="st0" d="M139.6,1c-1.4-1.4-3.6-1.4-4.9,0L103,32.6c-1.4,1.4-1.4,3.6,0,4.9l30.8,30.8c0.7,0.7,1.6,1,2.5,1
			s1.8-0.3,2.5-1c1.4-1.4,1.4-3.6,0-4.9l-28.3-28.3L139.6,6C140.9,4.6,140.9,2.4,139.6,1z"/>
		<path class="st0" d="M207.1,17c-1.4-1.4-3.6-1.4-4.9,0l-18.2,18.2c-1.4,1.4-1.4,3.6,0,4.9c0.7,0.7,1.6,1,2.5,1s1.8-0.3,2.5-1
			L207.1,22C208.4,20.6,208.4,18.4,207.1,17z"/>
		<path class="st0" d="M162,35.1L191.1,6c1.4-1.4,1.4-3.6,0-5c-1.4-1.4-3.6-1.4-4.9,0l-31.6,31.6c0,0,0,0,0,0c0,0,0,0,0,0
			c0,0-0.1,0.1-0.1,0.1c-0.1,0.1-0.2,0.3-0.3,0.4c-0.1,0.1-0.1,0.2-0.1,0.2c-0.1,0.1-0.1,0.2-0.2,0.4c0,0.1-0.1,0.2-0.1,0.3
			c0,0.1-0.1,0.2-0.1,0.3c0,0.1,0,0.2,0,0.3c0,0.1,0,0.2,0,0.3c0,0.1,0,0.2,0,0.3c0,0.1,0,0.2,0,0.3c0,0.1,0.1,0.2,0.1,0.3
			c0,0.1,0.1,0.2,0.1,0.4c0,0.1,0.1,0.2,0.1,0.3c0.1,0.1,0.1,0.2,0.2,0.3c0.1,0.1,0.1,0.2,0.2,0.3c0.1,0.1,0.1,0.2,0.2,0.3
			c0,0,0,0,0,0s0,0,0,0l30.9,30.8c0.7,0.7,1.6,1,2.5,1c0.9,0,1.8-0.3,2.5-1c1.4-1.4,1.4-3.6,0-4.9L162,35.1z"/>
		<path class="st0" d="M56.3,1c-1.4-1.4-3.6-1.4-5,0c-1.4,1.4-1.4,3.6,0,5l29.1,29.1L52.1,63.4c-1.4,1.4-1.4,3.6,0,4.9
			c0.7,0.7,1.6,1,2.5,1s1.8-0.3,2.5-1l30.8-30.8c0.7-0.7,1-1.5,1-2.5c0-0.9-0.4-1.8-1-2.5L56.3,1z"/>
	</g>
</g>
</svg>
